<?xml version="1.0" encoding="utf-8"?>
<!-- Generator: Adobe Illustrator 28.2.0, SVG Export Plug-In . SVG Version: 6.00 Build 0)  -->
<svg version="1.1" id="Layer_1" xmlns="http://www.w3.org/2000/svg" xmlns:xlink="http://www.w3.org/1999/xlink" x="0px" y="0px"
	 viewBox="0 0 2000 2000" style="enable-background:new 0 0 2000 2000;" xml:space="preserve">
<style type="text/css">
	.st0{fill:#33BD8F;}
	.st1{fill:#FFFFFF;}
</style>
<rect class="st0" width="2000" height="2000"/>
<g>
	<g>
		<path class="st1" d="M727.6,579.6c-112.9,0-204.5,91.6-204.5,204.5v431.7c0,112.9,91.6,204.5,204.5,204.5h231.7v-190.1v-71.2
			H776.9c-26.9,0-48.8-21.8-48.8-48.8V889.7c0-26.9,21.8-48.8,48.8-48.8h182.4v-58v-73.5V579.6H727.6z"/>
		<path class="st1" d="M1272.4,579.6h-231.7V783v58h182.4c26.9,0,48.8,21.8,48.8,48.8v220.6c0,26.9-21.8,48.8-48.8,48.8h-182.4v71.2
			v190.1h231.7c112.9,0,204.5-91.6,204.5-204.5V784.2C1476.9,671.2,1385.3,579.6,1272.4,579.6z"/>
	</g>
	<path class="st1" d="M898.9,923.8c-0.8-0.1-1.6-0.1-2.4-0.1s-1.6,0-2.4,0.1c-37.1,2-67,39-67,111.5v40.9h69.3h69.3v-40.9
		C965.8,962.9,936,925.8,898.9,923.8z"/>
	<path class="st1" d="M1108.5,923.8c-0.8-0.1-1.6-0.1-2.4-0.1s-1.6,0-2.4,0.1c-37.1,2-67,39-67,111.5v40.9h69.3h69.3v-40.9
		C1175.5,962.9,1145.7,925.8,1108.5,923.8z"/>
</g>
</svg>
