<?xml version="1.0" encoding="utf-8"?>
<!-- Generator: Adobe Illustrator 28.2.0, SVG Export Plug-In . SVG Version: 6.00 Build 0)  -->
<svg version="1.1" id="Layer_1" xmlns="http://www.w3.org/2000/svg" xmlns:xlink="http://www.w3.org/1999/xlink" x="0px" y="0px"
	 viewBox="0 0 2000 2000" style="enable-background:new 0 0 2000 2000;" xml:space="preserve">
<style type="text/css">
	.st0{fill:#33BD8F;}
	.st1{fill:#FFFFFF;}
</style>
<rect class="st0" width="2000" height="2000"/>
<g>
	<g>
		<path class="st1" d="M908.6,985.8c4,3.9,6,8.6,6,14.2v64.8c0,5.6-2,10.4-6,14.2c-4,3.9-8.8,5.8-14.4,5.8H792.5v-40.2h81v-24.6
			h-60.6c-5.6,0-10.4-1.9-14.4-5.8c-4-3.9-6-8.6-6-14.2v-64.8c0-5.6,2-10.4,6-14.2c4-3.9,8.8-5.8,14.4-5.8h101.7v40.2H833v24.6h61.2
			C899.8,979.9,904.6,981.9,908.6,985.8z"/>
		<path class="st1" d="M932.2,935.2c0-5.6,2-10.4,6-14.2c4-3.9,8.8-5.8,14.4-5.8h81.3c5.6,0,10.4,1.9,14.4,5.8c4,3.9,6,8.6,6,14.2
			v129.5c0,5.6-2,10.4-6,14.2c-4,3.9-8.8,5.8-14.4,5.8h-61.2v64.8h-40.5V935.2z M972.7,1044.7h40.5v-89.4h-40.5V1044.7z"/>
		<path class="st1" d="M1092.3,1084.8c-5.6,0-10.4-1.9-14.4-5.8c-4-3.9-6-8.6-6-14.2V935.2c0-5.6,2-10.4,6-14.2
			c4-3.9,8.8-5.8,14.4-5.8h81.3c5.6,0,10.4,1.9,14.4,5.8c4,3.9,6,8.6,6,14.2v129.5c0,5.6-2,10.4-6,14.2c-4,3.9-8.8,5.8-14.4,5.8
			H1092.3z M1112.4,1044.7h40.5v-89.4h-40.5V1044.7z"/>
		<path class="st1" d="M1232,1084.8c-5.6,0-10.4-1.9-14.4-5.8c-4-3.9-6-8.6-6-14.2V935.2c0-5.6,2-10.4,6-14.2
			c4-3.9,8.8-5.8,14.4-5.8h81.3c5.6,0,10.4,1.9,14.4,5.8c4,3.9,6,8.6,6,14.2v214.4h-41.1v-64.8H1232z M1252.1,1044.7h40.5v-89.4
			h-40.5V1044.7z"/>
		<path class="st1" d="M1351.3,935.2c0-5.6,2-10.4,6-14.2c4-3.9,8.8-5.8,14.4-5.8h81.3c5.6,0,10.4,1.9,14.4,5.8c4,3.9,6,8.6,6,14.2
			v84.8h-81.6v24.6h81.6v40.2h-101.7c-5.6,0-10.4-1.9-14.4-5.8c-4-3.9-6-8.6-6-14.2V935.2z M1391.8,979.9h41.1v-24.6h-41.1V979.9z"
			/>
		<path class="st1" d="M1592.7,915.2c5.6,0,10.4,1.9,14.4,5.8c4,3.9,6,8.6,6,14.2v149.6H1572V955.3h-40.5v129.5H1491V915.2H1592.7z"
			/>
	</g>
	<g>
		<g>
			<path class="st1" d="M461.6,846.5c-41.2,0-74.7,33.4-74.7,74.7v157.6c0,41.2,33.4,74.7,74.7,74.7h84.6v-69.4v-26h-66.6
				c-9.8,0-17.8-8-17.8-17.8v-80.6c0-9.8,8-17.8,17.8-17.8h66.6v-21.2v-26.8v-47.4H461.6z"/>
			<path class="st1" d="M660.5,846.5h-84.6v74.2v21.2h66.6c9.8,0,17.8,8,17.8,17.8v80.6c0,9.8-8,17.8-17.8,17.8h-66.6v26v69.4h84.6
				c41.2,0,74.7-33.4,74.7-74.7V921.2C735.1,879.9,701.7,846.5,660.5,846.5z"/>
		</g>
		<path class="st1" d="M524.1,972.2c-0.3,0-0.6,0-0.9,0c-0.3,0-0.6,0-0.9,0c-13.6,0.7-24.4,14.3-24.4,40.7v14.9h25.3h25.3v-14.9
			C548.5,986.4,537.6,972.9,524.1,972.2z"/>
		<path class="st1" d="M600.6,972.2c-0.3,0-0.6,0-0.9,0c-0.3,0-0.6,0-0.9,0c-13.6,0.7-24.4,14.3-24.4,40.7v14.9h25.3h25.3v-14.9
			C625.1,986.4,614.2,972.9,600.6,972.2z"/>
	</g>
</g>
</svg>
